<svg width="488.4276611328125px" height="121.39999999999999px" xmlns="http://www.w3.org/2000/svg" viewBox="5.786169433593756 14.300000000000004 488.4276611328125 121.39999999999999" style="background: rgba(0, 0, 0, 0);" preserveAspectRatio="xMidYMid"><defs><linearGradient id="editing-outline-gradient" x1="-0.41354545764260087" x2="1.4135454576426008" y1="0.09326335692419985" y2="0.9067366430758002"><stop offset="0" stop-color="#ee4208"></stop><stop offset="1" stop-color="#4139ff"></stop></linearGradient><filter id="editing-outline" x="-100%" y="-100%" width="300%" height="300%"><feMorphology in="SourceGraphic" operator="dilate" radius="1" result="outline"></feMorphology><feComposite operator="out" in="outline" in2="SourceAlpha"></feComposite></filter></defs><g filter="url(#editing-outline)"><g transform="translate(83.2135970890522, 99)"><path d="M0.45-0.32L0.45-0.32L8.51-42.24L8.51-42.24Q16.06-42.88 20.93-42.88L20.93-42.88L20.93-42.88Q25.79-42.88 28.93-42.46L28.93-42.46L28.93-42.46Q32.06-42.05 34.18-40.96L34.18-40.96L34.18-40.96Q38.40-38.91 38.40-33.28L38.40-33.28L38.40-33.28Q38.40-30.02 35.58-27.26L35.58-27.26L35.58-27.26Q32.96-24.77 30.08-24.19L30.08-24.19L30.08-24.19Q33.15-23.68 35.33-21.38L35.33-21.38L35.33-21.38Q37.63-18.94 37.63-15.17L37.63-15.17L37.63-15.17Q37.63-7.87 32.19-3.62L32.19-3.62L32.19-3.62Q26.75 0.64 16.06 0.64L16.06 0.64L16.06 0.64Q8.70 0.64 0.45-0.32ZM17.86-20.61L14.66-4.03L14.66-4.03Q15.23-3.97 15.36-3.97L15.36-3.97L15.94-3.97L15.94-3.97Q21.18-3.97 23.42-7.42L23.42-7.42L23.42-7.42Q25.09-10.11 25.09-15.04L25.09-15.04L25.09-15.04Q25.09-17.66 23.39-19.07L23.39-19.07L23.39-19.07Q21.70-20.48 17.86-20.61L17.86-20.61ZM27.58-33.22L27.58-33.22L27.58-33.22Q27.58-38.53 22.46-38.53L22.46-38.53L21.89-38.53L21.89-38.53Q21.63-38.53 21.25-38.46L21.25-38.46L18.69-24.96L19.33-24.96L19.33-24.96Q27.58-25.15 27.58-33.22ZM67.78-10.82L67.78-10.82L67.78-10.82Q69.38-9.73 69.38-7.33L69.38-7.33L69.38-7.33Q69.38-4.93 68.16-3.39L68.16-3.39L68.16-3.39Q66.94-1.86 64.96-0.83L64.96-0.83L64.96-0.83Q60.86 1.28 56.45 1.28L56.45 1.28L56.45 1.28Q52.03 1.28 49.44 0.32L49.44 0.32L49.44 0.32Q46.85-0.64 45.12-2.43L45.12-2.43L45.12-2.43Q41.73-5.82 41.73-12.03L41.73-12.03L41.73-12.03Q41.73-21.70 46.98-27.58L46.98-27.58L46.98-27.58Q52.61-33.92 62.40-33.92L62.40-33.92L62.40-33.92Q68.48-33.92 71.49-31.36L71.49-31.36L71.49-31.36Q73.73-29.44 73.73-26.30L73.73-26.30L73.73-26.30Q73.73-15.04 54.27-15.04L54.27-15.04L54.27-15.04Q54.02-13.38 54.02-11.97L54.02-11.97L54.02-11.97Q54.02-9.02 55.33-7.90L55.33-7.90L55.33-7.90Q56.64-6.78 59.07-6.78L59.07-6.78L59.07-6.78Q61.50-6.78 64.10-7.90L64.10-7.90L64.10-7.90Q66.69-9.02 67.78-10.82ZM54.72-17.79L54.72-17.79L54.72-17.79Q59.26-17.79 61.89-20.61L61.89-20.61L61.89-20.61Q64.51-23.30 64.51-27.58L64.51-27.58L64.51-27.58Q64.51-29.06 63.97-29.86L63.97-29.86L63.97-29.86Q63.42-30.66 62.34-30.66L62.34-30.66L62.34-30.66Q61.25-30.66 60.32-30.24L60.32-30.24L60.32-30.24Q59.39-29.82 58.43-28.42L58.43-28.42L58.43-28.42Q56.06-25.22 54.72-17.79ZM102.98 1.28L102.98 1.28L102.98 1.28Q95.23 1.28 95.23-4.74L95.23-4.74L95.23-4.74Q95.30-6.40 95.81-9.22L95.81-9.22L96.96-15.10L96.96-15.10Q98.69-23.42 98.69-25.28L98.69-25.28L98.69-25.28Q98.69-28.99 96.51-28.99L96.51-28.99L96.51-28.99Q92.86-28.99 90.94-19.46L90.94-19.46L87.17 0L74.30 1.28L80.96-32.70L91.46-33.92L90.43-27.65L90.43-27.65Q93.44-33.92 102.66-33.92L102.66-33.92L102.66-33.92Q107.14-33.92 109.02-32.03L109.02-32.03L109.02-32.03Q110.91-30.14 110.91-25.92L110.91-25.92L110.91-25.92Q110.91-21.95 108.86-12.67L108.86-12.67L108.86-12.67Q107.90-8.51 107.90-6.94L107.90-6.94L107.90-6.94Q107.90-5.38 108.77-4.48L108.77-4.48L108.77-4.48Q109.63-3.58 110.91-3.46L110.91-3.46L110.91-3.46Q110.27-1.28 108.06 0L108.06 0L108.06 0Q105.86 1.28 102.98 1.28ZM154.24-42.69L154.24-42.69L154.24-42.69Q169.92-42.69 169.92-31.62L169.92-31.62L169.92-31.62Q169.92-25.54 166.02-21.89L166.02-21.89L166.02-21.89Q162.18-18.24 155.46-18.24L155.46-18.24L155.46-18.24Q152.32-18.24 149.89-20.03L149.89-20.03L149.89-20.03Q148.74-20.80 147.97-21.82L147.97-21.82L147.97-21.82Q152.64-21.82 155.10-24.67L155.10-24.67L155.10-24.67Q157.57-27.52 157.57-33.09L157.57-33.09L157.57-33.09Q157.57-38.66 152.06-38.66L152.06-38.66L150.53-38.66L150.53-38.66Q150.14-38.66 149.82-38.59L149.82-38.59L142.46 0L128.58 0L136.45-41.92L136.45-41.92Q143.30-42.56 147.26-42.62L147.26-42.62L147.26-42.62Q151.23-42.69 154.24-42.69ZM185.60-3.52L185.60-3.52L185.60-3.52Q183.62 1.28 177.28 1.28L177.28 1.28L177.28 1.28Q174.02 1.28 171.97-0.96L171.97-0.96L171.97-0.96Q170.24-2.94 170.24-4.93L170.24-4.93L170.24-4.93Q170.24-10.11 172.61-20.22L172.61-20.22L174.98-32.64L187.97-33.92L184.06-13.70L184.06-13.70Q182.98-8.96 182.98-7.30L182.98-7.30L182.98-7.30Q182.98-3.65 185.60-3.52ZM176.13-41.54L176.13-41.54L176.13-41.54Q176.13-44.03 178.21-45.38L178.21-45.38L178.21-45.38Q180.29-46.72 183.30-46.72L183.30-46.72L183.30-46.72Q186.30-46.72 188.13-45.38L188.13-45.38L188.13-45.38Q189.95-44.03 189.95-41.54L189.95-41.54L189.95-41.54Q189.95-39.04 187.94-37.76L187.94-37.76L187.94-37.76Q185.92-36.48 182.91-36.48L182.91-36.48L182.91-36.48Q179.90-36.48 178.02-37.76L178.02-37.76L178.02-37.76Q176.13-39.04 176.13-41.54ZM192.06-6.40L192.06-6.40L192.06-6.40Q192.06-8.13 192.96-12.48L192.96-12.48L196.35-29.76L192.58-29.76L192.83-31.68L192.83-31.68Q200.51-33.98 207.94-39.62L207.94-39.62L211.01-39.62L209.47-32.64L214.46-32.64L213.89-29.76L208.96-29.76L205.70-12.48L205.70-12.48Q204.86-8.51 204.86-7.17L204.86-7.17L204.86-7.17Q204.86-4.10 207.55-3.46L207.55-3.46L207.55-3.46Q206.91-1.28 204.61 0L204.61 0L204.61 0Q202.30 1.28 199.04 1.28L199.04 1.28L199.04 1.28Q195.78 1.28 193.92-0.77L193.92-0.77L193.92-0.77Q192.06-2.82 192.06-6.40ZM234.18-17.98L234.18-17.98L234.18-17.98Q236.48-22.08 236.48-26.24L236.48-26.24L236.48-26.24Q236.48-28.99 234.50-28.99L234.50-28.99L234.50-28.99Q232.96-28.99 231.36-26.37L231.36-26.37L231.36-26.37Q229.70-23.74 229.18-20.35L229.18-20.35L225.86 0L212.61 1.28L219.14-32.64L229.70-33.92L228.54-27.46L228.54-27.46Q231.68-33.92 238.72-33.92L238.72-33.92L238.72-33.92Q242.43-33.92 244.45-32L244.45-32L244.45-32Q246.46-30.08 246.46-26.14L246.46-26.14L246.46-26.14Q246.46-22.21 243.87-19.71L243.87-19.71L243.87-19.71Q241.28-17.22 236.86-17.22L236.86-17.22L236.86-17.22Q234.94-17.22 234.18-17.98ZM261.44 1.28L261.44 1.28L261.44 1.28Q247.36 1.28 247.36-11.97L247.36-11.97L247.36-11.97Q247.36-21.38 252.54-27.46L252.54-27.46L252.54-27.46Q258.05-33.92 267.58-33.92L267.58-33.92L267.58-33.92Q274.50-33.92 278.02-30.72L278.02-30.72L278.02-30.72Q281.54-27.52 281.54-20.80L281.54-20.80L281.54-20.80Q281.54-10.56 276.03-4.61L276.03-4.61L276.03-4.61Q270.66 1.28 261.44 1.28ZM263.10-26.56L263.10-26.56L263.10-26.56Q262.34-24.83 261.73-22.24L261.73-22.24L261.73-22.24Q261.12-19.65 260.35-15.55L260.35-15.55L260.35-15.55Q259.58-11.46 259.58-6.40L259.58-6.40L259.58-6.40Q259.58-4.74 260.13-3.65L260.13-3.65L260.13-3.65Q260.67-2.56 262.14-2.56L262.14-2.56L262.14-2.56Q263.62-2.56 264.54-3.26L264.54-3.26L264.54-3.26Q265.47-3.97 266.18-5.63L266.18-5.63L266.18-5.63Q267.46-8.58 268.48-14.05L268.48-14.05L268.48-14.05Q269.50-19.52 269.60-21.89L269.60-21.89L269.60-21.89Q269.70-24.26 269.70-26.02L269.70-26.02L269.70-26.02Q269.70-27.78 269.18-28.93L269.18-28.93L269.18-28.93Q268.67-30.08 267.23-30.08L267.23-30.08L267.23-30.08Q265.79-30.08 264.83-29.18L264.83-29.18L264.83-29.18Q263.87-28.29 263.10-26.56ZM310.27-37.12L310.27-37.12L310.27-37.12Q311.17-38.66 311.17-40.32L311.17-40.32L311.17-40.32Q311.17-43.26 309.38-43.26L309.38-43.26L309.38-43.26Q306.62-43.26 305.47-37.63L305.47-37.63L304.51-32.64L310.34-32.64L309.95-29.76L303.94-29.76L298.18 0L285.25 1.28L291.39-29.76L286.85-29.76L287.42-32.64L291.90-32.64L293.25-37.70L293.25-37.70Q294.40-42.37 299.33-44.54L299.33-44.54L299.33-44.54Q302.91-46.08 308.93-46.08L308.93-46.08L308.93-46.08Q314.94-46.08 317.63-44.54L317.63-44.54L317.63-44.54Q320.32-43.01 320.32-40.96L320.32-40.96L320.32-40.96Q320.32-38.91 318.72-37.63L318.72-37.63L318.72-37.63Q317.12-36.35 315.33-36.35L315.33-36.35L315.33-36.35Q311.81-36.35 310.27-37.12ZM334.72-37.12L334.72-37.12L334.72-37.12Q335.62-38.66 335.62-40.32L335.62-40.32L335.62-40.32Q335.62-43.26 333.82-43.26L333.82-43.26L333.82-43.26Q331.07-43.26 329.92-37.63L329.92-37.63L328.96-32.64L334.78-32.64L334.40-29.76L328.38-29.76L322.62 0L309.70 1.28L315.84-29.76L311.30-29.76L311.87-32.64L316.35-32.64L317.70-37.70L317.70-37.70Q318.85-42.37 323.78-44.54L323.78-44.54L323.78-44.54Q327.36-46.08 333.38-46.08L333.38-46.08L333.38-46.08Q339.39-46.08 342.08-44.54L342.08-44.54L342.08-44.54Q344.77-43.01 344.77-40.96L344.77-40.96L344.77-40.96Q344.77-38.91 343.17-37.63L343.17-37.63L343.17-37.63Q341.57-36.35 339.78-36.35L339.78-36.35L339.78-36.35Q336.26-36.35 334.72-37.12Z" fill="url(#editing-outline-gradient)"></path></g></g><style>text {
  font-size: 64px;
  font-family: Arial Black;
  dominant-baseline: central;
  text-anchor: middle;
}</style></svg>