<svg width="766.591015625px" height="182px" xmlns="http://www.w3.org/2000/svg" viewBox="-133.29550781249998 -16 766.591015625 182" style="background: rgba(0, 0, 0, 0);" preserveAspectRatio="xMidYMid"><defs><filter id="editing-offset"><feFlood flood-color="#f00" flood-opacity="0.5" result="c1"></feFlood><feFlood flood-color="#0f0" flood-opacity="0.5" result="c2"></feFlood><feFlood flood-color="#00f" flood-opacity="0.5" result="c3"></feFlood><feComposite operator="in" in="c1" in2="SourceAlpha" result="text-c1"></feComposite><feComposite operator="in" in="c2" in2="SourceAlpha" result="text-c2"></feComposite><feComposite operator="in" in="c3" in2="SourceAlpha" result="text-c3"></feComposite><feOffset in="text-c1" dx="-10" dy="0" result="text1"></feOffset><feOffset in="text-c2" dx="10" dy="0" result="text2"></feOffset><feOffset in="text-c3" dx="0" dy="0" result="text3"></feOffset><feMerge><feMergeNode in="text1"></feMergeNode><feMergeNode in="text2"></feMergeNode><feMergeNode in="text3"></feMergeNode></feMerge></filter></defs><g filter="url(#editing-offset)"><g transform="translate(-15.810203492641449, 113.24999904632568)"><path d="M0.71-0.51L0.71-0.51L13.57-67.32L13.57-67.32Q25.60-68.34 33.35-68.34L33.35-68.34L33.35-68.34Q41.11-68.34 46.10-67.68L46.10-67.68L46.10-67.68Q51.10-67.01 54.47-65.28L54.47-65.28L54.47-65.28Q61.20-62.02 61.20-53.04L61.20-53.04L61.20-53.04Q61.20-47.84 56.71-43.45L56.71-43.45L56.71-43.45Q52.53-39.47 47.94-38.56L47.94-38.56L47.94-38.56Q52.84-37.74 56.30-34.07L56.30-34.07L56.30-34.07Q59.98-30.19 59.98-24.17L59.98-24.17L59.98-24.17Q59.98-12.55 51.31-5.76L51.31-5.76L51.31-5.76Q42.64 1.02 25.60 1.02L25.60 1.02L25.60 1.02Q13.87 1.02 0.71-0.51ZM28.46-32.84L23.36-6.43L23.36-6.43Q24.28-6.32 24.48-6.32L24.48-6.32L25.40-6.32L25.40-6.32Q33.76-6.32 37.33-11.83L37.33-11.83L37.33-11.83Q39.98-16.12 39.98-23.97L39.98-23.97L39.98-23.97Q39.98-28.15 37.28-30.40L37.28-30.40L37.28-30.40Q34.58-32.64 28.46-32.84L28.46-32.84ZM43.96-52.94L43.96-52.94L43.96-52.94Q43.96-61.40 35.80-61.40L35.80-61.40L34.88-61.40L34.88-61.40Q34.48-61.40 33.86-61.30L33.86-61.30L29.78-39.78L30.80-39.78L30.80-39.78Q43.96-40.09 43.96-52.94ZM108.02-17.24L108.02-17.24L108.02-17.24Q110.57-15.50 110.57-11.68L110.57-11.68L110.57-11.68Q110.57-7.85 108.63-5.41L108.63-5.41L108.63-5.41Q106.69-2.96 103.53-1.33L103.53-1.33L103.53-1.33Q97.00 2.04 89.96 2.04L89.96 2.04L89.96 2.04Q82.93 2.04 78.80 0.51L78.80 0.51L78.80 0.51Q74.66-1.02 71.91-3.88L71.91-3.88L71.91-3.88Q66.50-9.28 66.50-19.18L66.50-19.18L66.50-19.18Q66.50-34.58 74.87-43.96L74.87-43.96L74.87-43.96Q83.84-54.06 99.45-54.06L99.45-54.06L99.45-54.06Q109.14-54.06 113.93-49.98L113.93-49.98L113.93-49.98Q117.50-46.92 117.50-41.92L117.50-41.92L117.50-41.92Q117.50-23.97 86.50-23.97L86.50-23.97L86.50-23.97Q86.09-21.32 86.09-19.07L86.09-19.07L86.09-19.07Q86.09-14.38 88.18-12.60L88.18-12.60L88.18-12.60Q90.27-10.81 94.15-10.81L94.15-10.81L94.15-10.81Q98.02-10.81 102.15-12.60L102.15-12.60L102.15-12.60Q106.28-14.38 108.02-17.24ZM87.21-28.36L87.21-28.36L87.21-28.36Q94.45-28.36 98.63-32.84L98.63-32.84L98.63-32.84Q102.82-37.13 102.82-43.96L102.82-43.96L102.82-43.96Q102.82-46.31 101.95-47.58L101.95-47.58L101.95-47.58Q101.08-48.86 99.35-48.86L99.35-48.86L99.35-48.86Q97.61-48.86 96.14-48.20L96.14-48.20L96.14-48.20Q94.66-47.53 93.13-45.29L93.13-45.29L93.13-45.29Q89.35-40.19 87.21-28.36ZM164.12 2.04L164.12 2.04L164.12 2.04Q151.78 2.04 151.78-7.55L151.78-7.55L151.78-7.55Q151.88-10.20 152.69-14.69L152.69-14.69L154.53-24.07L154.53-24.07Q157.28-37.33 157.28-40.29L157.28-40.29L157.28-40.29Q157.28-46.21 153.82-46.21L153.82-46.21L153.82-46.21Q148.00-46.21 144.94-31.01L144.94-31.01L138.92 0L118.42 2.04L129.03-52.12L145.76-54.06L144.13-44.06L144.13-44.06Q148.92-54.06 163.61-54.06L163.61-54.06L163.61-54.06Q170.75-54.06 173.76-51.05L173.76-51.05L173.76-51.05Q176.77-48.04 176.77-41.31L176.77-41.31L176.77-41.31Q176.77-34.99 173.50-20.20L173.50-20.20L173.50-20.20Q171.97-13.57 171.97-11.07L171.97-11.07L171.97-11.07Q171.97-8.57 173.35-7.14L173.35-7.14L173.35-7.14Q174.73-5.71 176.77-5.51L176.77-5.51L176.77-5.51Q175.75-2.04 172.23 0L172.23 0L172.23 0Q168.71 2.04 164.12 2.04ZM245.82-68.03L245.82-68.03L245.82-68.03Q270.81-68.03 270.81-50.39L270.81-50.39L270.81-50.39Q270.81-40.70 264.59-34.88L264.59-34.88L264.59-34.88Q258.47-29.07 247.76-29.07L247.76-29.07L247.76-29.07Q242.76-29.07 238.88-31.93L238.88-31.93L238.88-31.93Q237.05-33.15 235.82-34.78L235.82-34.78L235.82-34.78Q243.27-34.78 247.20-39.32L247.20-39.32L247.20-39.32Q251.12-43.86 251.12-52.73L251.12-52.73L251.12-52.73Q251.12-61.61 242.35-61.61L242.35-61.61L239.90-61.61L239.90-61.61Q239.29-61.61 238.78-61.51L238.78-61.51L227.05 0L204.92 0L217.46-66.81L217.46-66.81Q228.38-67.83 234.70-67.93L234.70-67.93L234.70-67.93Q241.03-68.03 245.82-68.03ZM295.80-5.61L295.80-5.61L295.80-5.61Q292.64 2.04 282.54 2.04L282.54 2.04L282.54 2.04Q277.34 2.04 274.07-1.53L274.07-1.53L274.07-1.53Q271.32-4.69 271.32-7.85L271.32-7.85L271.32-7.85Q271.32-16.12 275.09-32.23L275.09-32.23L278.87-52.02L299.57-54.06L293.35-21.83L293.35-21.83Q291.62-14.28 291.62-11.63L291.62-11.63L291.62-11.63Q291.62-5.81 295.80-5.61ZM280.70-66.20L280.70-66.20L280.70-66.20Q280.70-70.18 284.02-72.32L284.02-72.32L284.02-72.32Q287.33-74.46 292.13-74.46L292.13-74.46L292.13-74.46Q296.92-74.46 299.83-72.32L299.83-72.32L299.83-72.32Q302.74-70.18 302.74-66.20L302.74-66.20L302.74-66.20Q302.74-62.22 299.52-60.18L299.52-60.18L299.52-60.18Q296.31-58.14 291.52-58.14L291.52-58.14L291.52-58.14Q286.72-58.14 283.71-60.18L283.71-60.18L283.71-60.18Q280.70-62.22 280.70-66.20ZM306.10-10.20L306.10-10.20L306.10-10.20Q306.10-12.95 307.53-19.89L307.53-19.89L312.94-47.43L306.92-47.43L307.33-50.49L307.33-50.49Q319.57-54.16 331.40-63.14L331.40-63.14L336.29-63.14L333.85-52.02L341.80-52.02L340.88-47.43L333.03-47.43L327.83-19.89L327.83-19.89Q326.50-13.57 326.50-11.42L326.50-11.42L326.50-11.42Q326.50-6.53 330.79-5.51L330.79-5.51L330.79-5.51Q329.77-2.04 326.09 0L326.09 0L326.09 0Q322.42 2.04 317.22 2.04L317.22 2.04L317.22 2.04Q312.02 2.04 309.06-1.22L309.06-1.22L309.06-1.22Q306.10-4.49 306.10-10.20ZM373.22-28.66L373.22-28.66L373.22-28.66Q376.89-35.19 376.89-41.82L376.89-41.82L376.89-41.82Q376.89-46.21 373.73-46.21L373.73-46.21L373.73-46.21Q371.28-46.21 368.73-42.02L368.73-42.02L368.73-42.02Q366.08-37.84 365.26-32.44L365.26-32.44L359.96 0L338.84 2.04L349.25-52.02L366.08-54.06L364.24-43.76L364.24-43.76Q369.24-54.06 380.46-54.06L380.46-54.06L380.46-54.06Q386.38-54.06 389.59-51.00L389.59-51.00L389.59-51.00Q392.80-47.94 392.80-41.67L392.80-41.67L392.80-41.67Q392.80-35.39 388.67-31.42L388.67-31.42L388.67-31.42Q384.54-27.44 377.50-27.44L377.50-27.44L377.50-27.44Q374.44-27.44 373.22-28.66ZM416.67 2.04L416.67 2.04L416.67 2.04Q394.23 2.04 394.23-19.07L394.23-19.07L394.23-19.07Q394.23-34.07 402.49-43.76L402.49-43.76L402.49-43.76Q411.26-54.06 426.46-54.06L426.46-54.06L426.46-54.06Q437.48-54.06 443.09-48.96L443.09-48.96L443.09-48.96Q448.70-43.86 448.70-33.15L448.70-33.15L448.70-33.15Q448.70-16.83 439.93-7.34L439.93-7.34L439.93-7.34Q431.36 2.04 416.67 2.04ZM419.32-42.33L419.32-42.33L419.32-42.33Q418.10-39.58 417.13-35.45L417.13-35.45L417.13-35.45Q416.16-31.31 414.94-24.79L414.94-24.79L414.94-24.79Q413.71-18.26 413.71-10.20L413.71-10.20L413.71-10.20Q413.71-7.55 414.58-5.81L414.58-5.81L414.58-5.81Q415.45-4.08 417.79-4.08L417.79-4.08L417.79-4.08Q420.14-4.08 421.62-5.20L421.62-5.20L421.62-5.20Q423.10-6.32 424.22-8.98L424.22-8.98L424.22-8.98Q426.26-13.67 427.89-22.39L427.89-22.39L427.89-22.39Q429.52-31.11 429.68-34.88L429.68-34.88L429.68-34.88Q429.83-38.66 429.83-41.46L429.83-41.46L429.83-41.46Q429.83-44.27 429.01-46.10L429.01-46.10L429.01-46.10Q428.20-47.94 425.90-47.94L425.90-47.94L425.90-47.94Q423.61-47.94 422.08-46.51L422.08-46.51L422.08-46.51Q420.55-45.08 419.32-42.33ZM494.50-59.16L494.50-59.16L494.50-59.16Q495.92-61.61 495.92-64.26L495.92-64.26L495.92-64.26Q495.92-68.95 493.07-68.95L493.07-68.95L493.07-68.95Q488.68-68.95 486.85-59.98L486.85-59.98L485.32-52.02L494.60-52.02L493.99-47.43L484.40-47.43L475.22 0L454.61 2.04L464.41-47.43L457.16-47.43L458.08-52.02L465.22-52.02L467.36-60.08L467.36-60.08Q469.20-67.52 477.05-70.99L477.05-70.99L477.05-70.99Q482.77-73.44 492.35-73.44L492.35-73.44L492.35-73.44Q501.94-73.44 506.23-70.99L506.23-70.99L506.23-70.99Q510.51-68.54 510.51-65.28L510.51-65.28L510.51-65.28Q510.51-62.02 507.96-59.98L507.96-59.98L507.96-59.98Q505.41-57.94 502.55-57.94L502.55-57.94L502.55-57.94Q496.94-57.94 494.50-59.16ZM533.46-59.16L533.46-59.16L533.46-59.16Q534.89-61.61 534.89-64.26L534.89-64.26L534.89-64.26Q534.89-68.95 532.03-68.95L532.03-68.95L532.03-68.95Q527.65-68.95 525.81-59.98L525.81-59.98L524.28-52.02L533.56-52.02L532.95-47.43L523.36-47.43L514.18 0L493.58 2.04L503.37-47.43L496.13-47.43L497.05-52.02L504.19-52.02L506.33-60.08L506.33-60.08Q508.16-67.52 516.02-70.99L516.02-70.99L516.02-70.99Q521.73-73.44 531.32-73.44L531.32-73.44L531.32-73.44Q540.91-73.44 545.19-70.99L545.19-70.99L545.19-70.99Q549.47-68.54 549.47-65.28L549.47-65.28L549.47-65.28Q549.47-62.02 546.92-59.98L546.92-59.98L546.92-59.98Q544.37-57.94 541.52-57.94L541.52-57.94L541.52-57.94Q535.91-57.94 533.46-59.16Z"></path></g></g><style>text {
  font-size: 64px;
  font-family: Arial Black;
  dominant-baseline: central;
  text-anchor: middle;
}</style></svg>